<?xml version="1.0" encoding="utf-8"?>
<!-- Generator: Adobe Illustrator 16.0.0, SVG Export Plug-In . SVG Version: 6.00 Build 0)  -->
<!DOCTYPE svg PUBLIC "-//W3C//DTD SVG 1.1//EN" "http://www.w3.org/Graphics/SVG/1.1/DTD/svg11.dtd">
<svg version="1.1" id="Layer_1" xmlns="http://www.w3.org/2000/svg" xmlns:xlink="http://www.w3.org/1999/xlink" x="0px" y="0px"
	 width="281.1px" height="127.6px" viewBox="0 0 281.1 127.6" style="enable-background:new 0 0 281.1 127.6;" xml:space="preserve"
	>
<style type="text/css">
<![CDATA[
	.st0{fill:#ED1B34;}
	.st1{fill:#FFFFFF;}
]]>
</style>
<g>
	<g>
		<g>
			<g>
				<g>
					<g>
						<g>
							<path class="st1" d="M216.7,0.9c0,0,0,15.3,0,15.2H237c0,0.1,0-15.2,0-15.2c0,0,10,0,10.1,0c0,0,0,38,0,38c0,0-10.1,0-10.1,0
								c0,0,0-16.7,0-16.7c0,0.1-20.4,0-20.4,0c0,0.1,0,16.8,0,16.7h-10.1c0,0,0.1-38,0-38H216.7z"/>
							<path class="st1" d="M121.1,0.9c0,0.1,0,6.5,0,6.5h-15.4V39H95.6V7.4H80.2c0,0,0-6.5,0-6.5C80.2,0.9,121.1,0.9,121.1,0.9z"/>
							<path class="st1" d="M160.2,39c0,0-11.3,0-11.2,0c0,0-3.3-8.2-3.3-8.2h-18.9c0,0-3.2,8.2-3.3,8.2c0,0-11.2,0-11.2,0l17.8-38
								c0,0,12.4,0,12.4,0L160.2,39z M136.3,7.4l-7,17.3h14L136.3,7.4"/>
							<rect x="255.1" y="0.9" class="st1" width="10.1" height="38"/>
							<path class="st1" d="M28.1,0.9c0,0,0,15.3,0,15.2h20.3c0,0.1,0-15.2,0-15.2c0,0,10,0,10.1,0c0,0,0,38,0,38c0,0-10.1,0-10.1,0
								c0,0,0-16.7,0-16.7c0,0.1-20.3,0-20.3,0c0,0.1,0,16.8,0,16.7H18c0,0,0.1-38,0-38H28.1z"/>
							<rect x="66.5" y="0.9" class="st1" width="10.1" height="38"/>
							<path class="st1" d="M159.9,28.4c-0.9-2.6-1.4-5.2-1.4-8.1c0-4,0.7-7.9,2.6-11.1c2-3.3,5-5.9,8.6-7.2c3.5-1.3,7.2-2,11.2-2
								c4.5,0,8.8,1,12.7,2.7c3.6,1.6,6.4,4.8,7.2,8.8c0.2,0.8,0.3,1.6,0.4,2.4h-10.6c0-1-0.2-2-0.6-2.9c-0.8-2.1-2.5-3.7-4.7-4.4
								c-1.4-0.4-2.9-0.7-4.4-0.7c-1.8,0-3.4,0.3-5,0.9c-2.6,0.9-4.6,3-5.5,5.6c-0.9,2.5-1.4,5.2-1.4,8c0,2.3,0.4,4.6,1,6.7
								c0.8,2.8,2.8,5,5.5,6c1.7,0.6,3.5,1,5.4,1c1.6,0,3.2-0.2,4.7-0.7c2-0.6,3.6-2.1,4.4-3.9c0.6-1.2,0.8-2.6,0.8-4.1h10.6
								c-0.1,1.2-0.2,2.5-0.5,3.6c-0.9,3.8-3.5,6.9-7,8.4c-4,1.7-8.3,2.6-13,2.6c-3.6,0-7-0.6-10.2-1.6
								C165.8,36.8,161.6,33.3,159.9,28.4z"/>
						</g>
					</g>
				</g>
			</g>
		</g>
	</g>
	<g>
		<g>
			<path class="st1" d="M9,49.6l-9,0.8v1.3l0.3,0c3.6,0.4,3.6,0.4,3.6,3v18.8h5.4v-24L9,49.6z"/>
			<path class="st1" d="M28,56.7c-3.4,0-5.3,2.3-6.3,3.6c0-1.2,0-3.7,0-3.7l-0.4,0.1l-7.3,1.1v1.3h0.3c2.3,0.1,2.8,0.6,2.8,2.7v11.8
				h4.5V65c0-2.3,2.2-5.3,4.5-5.3c2.2,0,2.3,1.8,2.3,4.8v9.2h4.5V61.9C33.1,58.6,31.3,56.7,28,56.7z"/>
			<path class="st1" d="M45.8,63.3c-1.8-0.9-3.3-1.6-3.3-2.9c0-1.4,1.7-1.5,2.4-1.5c1.9,0,3.5,1,4.3,1.5l0.7,0.4l0-0.6v-2.8
				l-0.6-0.1c-0.8-0.2-2.4-0.5-4.1-0.5c-4.3,0-6.8,1.8-6.8,4.9c0,2.8,2.7,4.1,5,5.2c1.8,0.9,3.5,1.7,3.5,3.1c0,1.3-1.1,2-3,2
				c-2.1,0-3.9-1.1-5-1.7l-0.5-0.3v3.5l0.3,0.1c0.9,0.2,2.6,0.6,5,0.6c4.6,0,7.3-1.9,7.3-5C51,65.9,48.2,64.5,45.8,63.3z"/>
			<path class="st1" d="M65.7,56.7c-1.7,0-3.3,0.8-4.8,2.3c0-0.8,0-2.4,0-2.4l-0.4,0.1l-7.2,1.1v1.3l0.3,0c2.3,0.1,2.7,0.5,2.7,2.7
				v18.7h4.5c0,0,0-7.1,0-8.5c0.8,1,2.2,2,4.7,2c4.7,0,7.3-3.1,7.3-8.9C72.8,59.8,70.2,56.7,65.7,56.7z M64.4,59.2
				c3.1,0,3.5,3.4,3.5,5.9c0,4.3-1.1,6.4-3.4,6.4c-2.9,0-3.6-2.8-3.6-5.1v-1.4C60.9,63.3,61.2,59.2,64.4,59.2z"/>
			<g>
				<path class="st1" d="M76,57.9v1.3l0.3,0c2.2,0.1,2.7,0.5,2.7,2.7v11.8h4.5v-17l-0.4,0.1L76,57.9z"/>
				<path class="st1" d="M81.3,54.7c1.6,0,2.8-1.1,2.8-2.5c0-1.3-1.3-2.4-2.8-2.4c-1.5,0-2.8,1.1-2.8,2.4
					C78.6,53.6,79.8,54.7,81.3,54.7z"/>
			</g>
			<path class="st1" d="M102.5,60.5V57l-0.3,0c-0.7-0.1-1.5-0.2-2.2-0.2c-2.6,0-3.9,1.9-4.6,3.3c0-1.3,0-3.4,0-3.4l-0.4,0.1
				l-7.2,1.1v1.3h0.3c2.3,0.1,2.8,0.5,2.8,2.7v11.8h4.5v-8.5c0-1.4,0.5-4.8,4.7-4.8c0.5,0,1.1,0.2,1.6,0.3l0.7,0.2V60.5z"/>
			<path class="st1" d="M120.5,63.6c0-4.6-2.5-6.8-7.5-6.8c-5.6,0-8.5,2.7-8.5,8.1c0,5.8,3.7,9.2,9.9,9.2c2.7,0,4.8-0.7,5.6-0.9
				l0.3-0.1v-2.2l-0.4,0.2c-0.8,0.3-2.1,0.6-3.5,0.6c-4.8,0-6.7-4-6.8-7.6c0.6,0,11.1,0,11.1,0V63.6z M112.8,58.5
				c2.4,0,3.1,1.8,3.1,3.4c-0.6,0-5.9,0-6.5,0C109.5,60.7,110.3,58.5,112.8,58.5z"/>
		</g>
		<g>
			<path class="st1" d="M161.9,56.7c-3.3,0-5.3,2.1-6.2,3.6c0-1.8,0-11.3,0-11.3l-0.4,0l-7.2,0.9v1.3l0.3,0c2.2,0.1,2.7,0.6,2.7,2.8
				v19.6h4.5v-8.5c0-3.1,2.3-5.5,4.3-5.5c2.5,0,2.5,1.9,2.5,3.6v10.4h4.5V62.8C167,61,167,56.7,161.9,56.7z"/>
			<path class="st1" d="M187.4,63.6c0-4.6-2.5-6.8-7.5-6.8c-5.6,0-8.5,2.7-8.5,8.1c0,5.8,3.7,9.2,9.9,9.2c2.7,0,4.8-0.7,5.5-0.9
				l0.3-0.1v-2.2l-0.4,0.2c-0.7,0.3-2.1,0.6-3.6,0.6c-4.9,0-6.7-4-6.8-7.6c0.6,0,11.1,0,11.1,0V63.6z M179.7,58.5
				c2.4,0,3.1,1.8,3.1,3.4c-0.6,0-5.9,0-6.5,0C176.4,60.7,177.2,58.5,179.7,58.5z"/>
			<path class="st1" d="M136.4,52c0,0,0,4.6,0,5.1c-0.5,0-3,0-3,0v2c0,0,2.5,0,3,0c0,0.6,0,10.2,0,10.2c0,4.4,2.8,4.7,6.2,4.7
				c0.9,0,1.7-0.1,2.7-0.3l0.3,0v-2l-0.4,0.1c-0.4,0.1-0.8,0.1-1.4,0.1c-2.7,0-2.9-0.8-2.9-3.1c0,0,0-9,0-9.6c0.6,0,5.1,0,5.1,0v-2
				c0,0-4.5,0-5.1,0c0-0.6,0-5.1,0-5.1H136.4z"/>
		</g>
		<g>
			<path class="st1" d="M225.8,50h-4.5c0,0,0,16.2,0,18c-0.9-1.4-11.8-18-11.8-18h-10.5v1.4l0.9,0.1c2.8,0.5,3,0.5,3,3.2v18.9h4.9
				c0,0,0-17.1,0-18.8c1,1.4,12.4,18.8,12.4,18.8h6V50H225.8z"/>
			<path class="st1" d="M246.4,63.6c0-4.6-2.5-6.8-7.5-6.8c-5.6,0-8.5,2.7-8.5,8.1c0,5.8,3.7,9.2,9.9,9.2c2.7,0,4.8-0.7,5.6-0.9
				l0.3-0.1v-2.2l-0.4,0.2c-0.8,0.3-2.1,0.6-3.6,0.6c-4.8,0-6.7-4-6.8-7.6c0.6,0,11.1,0,11.1,0V63.6z M238.7,58.6
				c2.4,0,3.1,1.8,3.1,3.4c-0.6,0-5.9,0-6.5,0C235.4,60.7,236.2,58.6,238.7,58.6z"/>
			<path class="st1" d="M271.4,52c0,0,0,4.7,0,5.2c-0.5,0-3,0-3,0v2c0,0,2.5,0,3,0c0,0.6,0,10.2,0,10.2c0,4.4,2.8,4.7,6.2,4.7
				c0.9,0,1.7-0.1,2.7-0.3l0.3,0v-2l-0.4,0.1c-0.4,0.1-0.9,0.1-1.4,0.1c-2.7,0-2.9-0.8-2.9-3.1c0,0,0-9,0-9.6c0.6,0,5.1,0,5.1,0v-2
				c0,0-4.5,0-5.1,0c0-0.6,0-5.2,0-5.2H271.4z"/>
			<g>
				<path class="st1" d="M262.3,62.5l4.7-5.4h-4.8l-4.4,5.1l-3.9-5.1h-6.9v1.3l0.3,0c2.4,0.2,2.9,0.6,4.4,2.5l2.8,3.8l-4.6,5.4h4.8
					l2.1-2.4l4.5,5.9h5.4L258,62.5H262.3z"/>
				<polygon class="st0" points="271.4,52 266.6,52 272.4,45.3 277.2,45.3 				"/>
			</g>
		</g>
	</g>
</g>
<g>
	<path class="st1" d="M31.2,105.2c2.5,0.7,4.6,2.1,6,4.2c0.7,1.1,1,2.2,1.4,3.4c0.3,1,1.2,2.1,2.4,2.1c-1.6,0-2.3,1.6-2.6,2.9
		c-0.4,1.5-1.4,3-2.5,4.1c-1.1,1.1-2.6,2-4.1,2.5c-1.4,0.4-2.8,0.9-3,2.6c-0.1-1.6-1.5-2.3-2.9-2.6c-1.6-0.4-3-1.4-4.1-2.5
		c-1.1-1.1-2-2.5-2.5-4.1c-0.4-1.3-1-3-2.6-3c1.7,0,2.2-1.6,2.6-2.9c0.5-1.6,1.4-3,2.5-4.2c1.2-1.2,2.7-2,4.3-2.5
		c1.2-0.3,2.6-1.1,2.6-2.5C28.9,104,30,104.9,31.2,105.2 M28.9,118.8c3.7,0.1,5.3-4.8,2.5-7.1c-2.9-2.4-7.2,0.3-6.4,3.9
		C25.3,117.5,27,118.9,28.9,118.8 M23.6,108.9c1.2,0,2.3,0,3.5,0c0.3,0,0.8,0.2,0.8-0.2c0-0.6,0-1.2,0-1.8
		C26.4,107.1,24.7,107.8,23.6,108.9 M29.9,108.9c1.4,0,2.8,0,4.3,0c-1.2-1-2.7-1.7-4.3-1.9C29.9,107.6,29.9,108.2,29.9,108.9
		 M28.9,122.8c2.1-0.1,3.7-0.7,5.3-2c-3.5,0-7,0-10.5,0C25,122.2,27,122.7,28.9,122.8 M28.9,116.8c2.5,0.1,2.6-3.4,0.3-4
		C26.5,112.3,26.1,117,28.9,116.8 M24.4,118.8c-2-2.1-2.1-5.8,0-7.9c-0.7,0-1.5,0-2.2,0c-0.5,0-0.6,0.7-0.8,1.1
		c-0.4,0.9-0.5,2-0.5,3c0,1,0.2,1.9,0.5,2.8c0.1,0.4,0.3,1.1,0.8,1.1C23,118.8,23.7,118.8,24.4,118.8 M35.8,118.8
		c0.9-1.3,1.2-3.1,1-4.7c-0.1-0.9-0.3-1.7-0.7-2.5c-0.2-0.5-0.3-0.7-0.9-0.7c-0.7,0-1.3,0-2,0c2,2.2,2,5.7,0,7.9
		C34.1,118.8,35,118.8,35.8,118.8"/>
</g>
<g>
	<path class="st1" d="M43.2,122.8v-15.9h3.3v6.1h6.2v-6.1H56v15.9h-3.3v-7.1h-6.2v7.1H43.2z"/>
	<path class="st1" d="M62.1,109.6H59v-2.8h3.1V109.6z M59,111h3.1v11.8H59V111z"/>
	<path class="st1" d="M63.9,113.3v-2.2h1.6v-3.3h3v3.3h1.9v2.2h-1.9v6.2c0,0.5,0.1,0.8,0.2,0.9c0.1,0.1,0.5,0.2,1.1,0.2
		c0.1,0,0.2,0,0.3,0c0.1,0,0.2,0,0.3,0v2.3L69,123c-1.5,0.1-2.5-0.2-3-0.8c-0.3-0.4-0.5-0.9-0.5-1.6v-7.3H63.9z"/>
	<path class="st1" d="M77.1,115.6c0.6-0.1,1-0.2,1.2-0.3c0.4-0.2,0.7-0.5,0.7-0.9c0-0.5-0.2-0.8-0.5-1s-0.8-0.3-1.5-0.3
		c-0.7,0-1.3,0.2-1.6,0.5c-0.2,0.3-0.4,0.6-0.4,1.1h-3c0.1-1,0.4-1.9,0.9-2.5c0.8-1,2.2-1.6,4.2-1.6c1.3,0,2.4,0.3,3.5,0.8
		c1,0.5,1.5,1.5,1.5,2.9v5.4c0,0.4,0,0.8,0,1.4c0,0.4,0.1,0.7,0.2,0.8c0.1,0.1,0.3,0.3,0.5,0.4v0.5h-3.4c-0.1-0.2-0.2-0.5-0.2-0.7
		s-0.1-0.4-0.1-0.7c-0.4,0.5-0.9,0.9-1.5,1.2c-0.7,0.4-1.4,0.6-2.3,0.6c-1.1,0-2-0.3-2.7-0.9c-0.7-0.6-1-1.5-1-2.6
		c0-1.4,0.6-2.5,1.7-3.1c0.6-0.4,1.5-0.6,2.7-0.8L77.1,115.6z M79,117.1c-0.2,0.1-0.4,0.2-0.6,0.3c-0.2,0.1-0.5,0.1-0.8,0.2
		l-0.7,0.1c-0.7,0.1-1.1,0.3-1.4,0.4c-0.5,0.3-0.7,0.7-0.7,1.3c0,0.5,0.1,0.9,0.4,1.1c0.3,0.2,0.7,0.4,1.1,0.4
		c0.7,0,1.3-0.2,1.9-0.6c0.6-0.4,0.9-1.1,0.9-2.1V117.1z"/>
	<path class="st1" d="M91.8,115.2c-0.1-0.4-0.2-0.8-0.4-1.2c-0.3-0.5-0.9-0.7-1.6-0.7c-1,0-1.8,0.5-2.1,1.5
		c-0.2,0.5-0.3,1.3-0.3,2.2c0,0.9,0.1,1.6,0.3,2.1c0.4,1,1.1,1.5,2.1,1.5c0.7,0,1.2-0.2,1.5-0.6c0.3-0.4,0.5-0.9,0.6-1.5h3.1
		c-0.1,0.9-0.4,1.8-1,2.7c-1,1.3-2.4,2-4.3,2s-3.3-0.6-4.2-1.7c-0.9-1.1-1.3-2.6-1.3-4.4c0-2,0.5-3.6,1.5-4.7s2.4-1.7,4.1-1.7
		c1.5,0,2.7,0.3,3.6,1s1.5,1.8,1.7,3.5H91.8z"/>
	<path class="st1" d="M105.6,111.1c0.6,0.3,1.1,0.6,1.5,1.2c0.3,0.4,0.5,0.9,0.6,1.4c0.1,0.5,0.1,1.2,0.1,2.3v6.9h-3.1v-7.2
		c0-0.6-0.1-1.1-0.3-1.5c-0.3-0.5-0.8-0.8-1.6-0.8c-0.8,0-1.4,0.3-1.8,0.8c-0.4,0.5-0.6,1.3-0.6,2.3v6.4h-3.1v-15.9h3.1v5.6
		c0.4-0.7,1-1.2,1.5-1.4s1.2-0.4,1.8-0.4C104.3,110.7,105,110.8,105.6,111.1z"/>
	<path class="st1" d="M113.8,109.6h-3.1v-2.8h3.1V109.6z M110.7,111h3.1v11.8h-3.1V111z"/>
	<path class="st1" d="M132.5,107.2c1.1,0.4,2,1,2.7,2c0.6,0.8,0.9,1.7,1.1,2.6s0.3,1.8,0.3,2.6c0,2.1-0.4,3.9-1.3,5.4
		c-1.2,2-2.9,3-5.3,3h-6.9v-15.9h6.9C131,106.9,131.8,107,132.5,107.2z M126.4,109.6V120h3.1c1.6,0,2.7-0.8,3.3-2.3
		c0.3-0.9,0.5-1.9,0.5-3c0-1.6-0.3-2.9-0.8-3.7c-0.5-0.9-1.5-1.3-3-1.3H126.4z"/>
	<path class="st1" d="M143.6,115.6c0.6-0.1,1-0.2,1.2-0.3c0.4-0.2,0.7-0.5,0.7-0.9c0-0.5-0.2-0.8-0.5-1s-0.8-0.3-1.5-0.3
		c-0.7,0-1.3,0.2-1.6,0.5c-0.2,0.3-0.4,0.6-0.4,1.1h-3c0.1-1,0.4-1.9,0.9-2.5c0.8-1,2.2-1.6,4.2-1.6c1.3,0,2.4,0.3,3.5,0.8
		s1.5,1.5,1.5,2.9v5.4c0,0.4,0,0.8,0,1.4c0,0.4,0.1,0.7,0.2,0.8c0.1,0.1,0.3,0.3,0.5,0.4v0.5h-3.4c-0.1-0.2-0.2-0.5-0.2-0.7
		c0-0.2-0.1-0.4-0.1-0.7c-0.4,0.5-0.9,0.9-1.5,1.2c-0.7,0.4-1.4,0.6-2.3,0.6c-1.1,0-2-0.3-2.7-0.9c-0.7-0.6-1-1.5-1-2.6
		c0-1.4,0.6-2.5,1.7-3.1c0.6-0.4,1.5-0.6,2.7-0.8L143.6,115.6z M145.5,117.1c-0.2,0.1-0.4,0.2-0.6,0.3c-0.2,0.1-0.5,0.1-0.8,0.2
		l-0.7,0.1c-0.7,0.1-1.1,0.3-1.4,0.4c-0.5,0.3-0.7,0.7-0.7,1.3c0,0.5,0.1,0.9,0.4,1.1c0.3,0.2,0.7,0.4,1.1,0.4
		c0.7,0,1.3-0.2,1.9-0.6c0.6-0.4,0.9-1.1,0.9-2.1V117.1z"/>
	<path class="st1" d="M150,113.3v-2.2h1.6v-3.3h3v3.3h1.9v2.2h-1.9v6.2c0,0.5,0.1,0.8,0.2,0.9c0.1,0.1,0.5,0.2,1.1,0.2
		c0.1,0,0.2,0,0.3,0c0.1,0,0.2,0,0.3,0v2.3l-1.5,0.1c-1.5,0.1-2.5-0.2-3-0.8c-0.3-0.4-0.5-0.9-0.5-1.6v-7.3H150z"/>
	<path class="st1" d="M163.3,115.6c0.6-0.1,1-0.2,1.2-0.3c0.4-0.2,0.7-0.5,0.7-0.9c0-0.5-0.2-0.8-0.5-1s-0.8-0.3-1.5-0.3
		c-0.7,0-1.3,0.2-1.6,0.5c-0.2,0.3-0.4,0.6-0.4,1.1h-3c0.1-1,0.4-1.9,0.9-2.5c0.8-1,2.2-1.6,4.2-1.6c1.3,0,2.4,0.3,3.5,0.8
		c1,0.5,1.5,1.5,1.5,2.9v5.4c0,0.4,0,0.8,0,1.4c0,0.4,0.1,0.7,0.2,0.8c0.1,0.1,0.3,0.3,0.5,0.4v0.5h-3.4c-0.1-0.2-0.2-0.5-0.2-0.7
		c0-0.2-0.1-0.4-0.1-0.7c-0.4,0.5-0.9,0.9-1.5,1.2c-0.7,0.4-1.4,0.6-2.3,0.6c-1.1,0-2-0.3-2.7-0.9c-0.7-0.6-1.1-1.5-1.1-2.6
		c0-1.4,0.6-2.5,1.7-3.1c0.6-0.4,1.5-0.6,2.7-0.8L163.3,115.6z M165.1,117.1c-0.2,0.1-0.4,0.2-0.6,0.3c-0.2,0.1-0.5,0.1-0.8,0.2
		l-0.7,0.1c-0.7,0.1-1.1,0.3-1.4,0.4c-0.5,0.3-0.7,0.7-0.7,1.3c0,0.5,0.1,0.9,0.4,1.1c0.3,0.2,0.7,0.4,1.1,0.4
		c0.7,0,1.3-0.2,1.9-0.6c0.6-0.4,0.9-1.1,0.9-2.1V117.1z"/>
	<path class="st1" d="M179.7,117.9c0.1,0.7,0.3,1.3,0.6,1.6c0.6,0.7,1.5,1,2.8,1c0.8,0,1.5-0.1,2-0.3c0.9-0.3,1.4-0.9,1.4-1.8
		c0-0.5-0.2-0.9-0.7-1.2c-0.5-0.3-1.2-0.5-2.2-0.7l-1.7-0.4c-1.7-0.4-2.9-0.8-3.5-1.2c-1.1-0.7-1.6-1.9-1.6-3.4
		c0-1.4,0.5-2.6,1.6-3.6s2.6-1.4,4.6-1.4c1.7,0,3.2,0.4,4.3,1.3c1.2,0.9,1.8,2.2,1.9,3.9H186c-0.1-1-0.5-1.6-1.3-2
		c-0.5-0.3-1.2-0.4-2-0.4c-0.9,0-1.6,0.2-2.1,0.5c-0.5,0.3-0.8,0.8-0.8,1.4c0,0.6,0.3,1,0.8,1.3c0.3,0.2,1,0.4,2.1,0.7l2.8,0.7
		c1.2,0.3,2.1,0.7,2.8,1.2c1,0.7,1.4,1.8,1.4,3.3c0,1.5-0.6,2.7-1.7,3.6c-1.1,1-2.7,1.4-4.8,1.4c-2.1,0-3.7-0.5-5-1.4
		c-1.2-0.9-1.8-2.3-1.8-3.9H179.7z"/>
	<path class="st1" d="M192.3,125.1l0.4,0c0.3,0,0.6,0,0.9,0c0.3,0,0.5-0.1,0.7-0.2c0.2-0.1,0.3-0.4,0.5-0.8c0.2-0.4,0.2-0.6,0.2-0.7
		l-4.3-12.3h3.4l2.6,8.7l2.4-8.7h3.3l-4,11.6c-0.8,2.2-1.4,3.6-1.9,4.2s-1.4,0.8-2.7,0.8c-0.3,0-0.5,0-0.7,0c-0.2,0-0.4,0-0.7,0
		V125.1z"/>
	<path class="st1" d="M206.5,119c0.1,0.5,0.2,0.9,0.4,1.2c0.4,0.4,1.1,0.6,2.1,0.6c0.6,0,1.1-0.1,1.5-0.3c0.4-0.2,0.5-0.5,0.5-0.8
		c0-0.3-0.1-0.6-0.4-0.8c-0.3-0.2-1.4-0.5-3.2-0.9c-1.3-0.3-2.3-0.7-2.8-1.2c-0.5-0.5-0.8-1.2-0.8-2.1c0-1.1,0.4-2,1.3-2.8
		c0.9-0.8,2.1-1.2,3.6-1.2c1.5,0,2.7,0.3,3.6,0.9c0.9,0.6,1.5,1.6,1.6,3h-3.1c0-0.4-0.2-0.7-0.3-0.9c-0.3-0.4-0.9-0.6-1.7-0.6
		c-0.7,0-1.2,0.1-1.4,0.3s-0.4,0.5-0.4,0.7c0,0.4,0.2,0.6,0.5,0.8c0.3,0.2,1.4,0.5,3.2,0.9c1.2,0.3,2.1,0.7,2.8,1.3
		c0.6,0.6,0.9,1.3,0.9,2.2c0,1.2-0.4,2.1-1.3,2.9c-0.9,0.7-2.2,1.1-4,1.1c-1.9,0-3.2-0.4-4.1-1.2c-0.9-0.8-1.3-1.8-1.3-3H206.5z"/>
	<path class="st1" d="M215.2,113.3v-2.2h1.6v-3.3h3v3.3h1.9v2.2h-1.9v6.2c0,0.5,0.1,0.8,0.2,0.9c0.1,0.1,0.5,0.2,1.1,0.2
		c0.1,0,0.2,0,0.3,0c0.1,0,0.2,0,0.3,0v2.3l-1.5,0.1c-1.5,0.1-2.5-0.2-3-0.8c-0.3-0.4-0.5-0.9-0.5-1.6v-7.3H215.2z"/>
	<path class="st1" d="M231.5,111.3c0.8,0.4,1.5,0.9,2,1.7c0.5,0.7,0.8,1.5,0.9,2.4c0.1,0.5,0.1,1.3,0.1,2.3H226c0,1.2,0.5,2,1.2,2.5
		c0.5,0.3,1,0.4,1.7,0.4c0.7,0,1.3-0.2,1.7-0.5c0.2-0.2,0.5-0.5,0.6-0.8h3.1c-0.1,0.7-0.5,1.4-1.1,2.1c-1.1,1.1-2.5,1.7-4.4,1.7
		c-1.6,0-3-0.5-4.2-1.5c-1.2-1-1.8-2.5-1.8-4.7c0-2,0.5-3.6,1.6-4.7c1.1-1.1,2.5-1.6,4.2-1.6C229.8,110.7,230.7,110.9,231.5,111.3z
		 M226.9,113.9c-0.4,0.4-0.7,1.1-0.8,1.8h5.3c-0.1-0.8-0.3-1.4-0.8-1.9c-0.5-0.4-1.1-0.6-1.8-0.6
		C227.9,113.2,227.3,113.5,226.9,113.9z"/>
	<path class="st1" d="M250.8,111.1c0.5,0.2,1,0.6,1.4,1.1c0.3,0.4,0.6,0.9,0.7,1.5c0.1,0.4,0.1,1,0.1,1.7l0,7.4h-3.2v-7.5
		c0-0.4-0.1-0.8-0.2-1.1c-0.3-0.5-0.8-0.8-1.5-0.8c-0.9,0-1.4,0.4-1.8,1.1c-0.2,0.4-0.2,0.8-0.2,1.4v7H243v-7c0-0.7-0.1-1.2-0.2-1.5
		c-0.3-0.6-0.8-0.9-1.5-0.9c-0.9,0-1.5,0.3-1.8,0.9c-0.2,0.3-0.3,0.8-0.3,1.4v7.1h-3.1V111h3v1.7c0.4-0.6,0.7-1,1.1-1.3
		c0.6-0.5,1.4-0.7,2.3-0.7c0.9,0,1.6,0.2,2.2,0.6c0.4,0.4,0.8,0.8,1,1.4c0.4-0.7,0.9-1.2,1.5-1.5c0.6-0.3,1.3-0.5,2.1-0.5
		C249.8,110.8,250.3,110.9,250.8,111.1z"/>
	<path class="st1" d="M258.2,119c0.1,0.5,0.2,0.9,0.4,1.2c0.4,0.4,1.1,0.6,2.1,0.6c0.6,0,1.1-0.1,1.4-0.3c0.4-0.2,0.5-0.5,0.5-0.8
		c0-0.3-0.1-0.6-0.4-0.8c-0.3-0.2-1.4-0.5-3.2-0.9c-1.3-0.3-2.3-0.7-2.8-1.2c-0.5-0.5-0.8-1.2-0.8-2.1c0-1.1,0.4-2,1.3-2.8
		c0.9-0.8,2.1-1.2,3.6-1.2c1.5,0,2.7,0.3,3.6,0.9c0.9,0.6,1.5,1.6,1.6,3h-3.1c0-0.4-0.2-0.7-0.3-0.9c-0.3-0.4-0.9-0.6-1.7-0.6
		c-0.7,0-1.2,0.1-1.4,0.3c-0.3,0.2-0.4,0.5-0.4,0.7c0,0.4,0.2,0.6,0.5,0.8c0.3,0.2,1.4,0.5,3.2,0.9c1.2,0.3,2.1,0.7,2.8,1.3
		c0.6,0.6,0.9,1.3,0.9,2.2c0,1.2-0.4,2.1-1.3,2.9c-0.9,0.7-2.2,1.1-4,1.1c-1.9,0-3.2-0.4-4.1-1.2c-0.9-0.8-1.3-1.8-1.3-3H258.2z"/>
</g>
</svg>
